<svg xmlns="http://www.w3.org/2000/svg" xmlns:xlink="http://www.w3.org/1999/xlink" id="Group_518" data-name="Group 518" width="46.929" height="46.918" viewBox="0 0 46.929 46.918"><defs><clipPath id="clip-path"><rect id="Rectangle_539" data-name="Rectangle 539" width="46.929" height="46.918" fill="#2d2d2d"></rect></clipPath></defs><g id="Group_517" data-name="Group 517" clip-path="url(#clip-path)"><path id="Path_1451" data-name="Path 1451" d="M46.928,22.707a.978.978,0,0,0-.494-.941c-.753-.485-1.515-.985-2.251-1.469l-.777-.51c-.095-.062-.188-.126-.3-.2l-.318-.217.549-2.048q.521-1.942,1.036-3.88c.566-2.138,1.118-4.23,1.651-6.314.194-.759.116-.893-.642-1.1C43.111,5.4,40.8,4.78,38.556,4.178L38.5,4.164,35.776,3.43l-.341-.094-.394-.11V3c0-.2,0-.406,0-.609,0-.458-.01-.932.012-1.4a.9.9,0,0,0-.5-.981L34.53,0H12.388l-.016.008a.9.9,0,0,0-.5.98c.022.467.017.942.012,1.4,0,.2,0,.409,0,.616v.227l-1.889.509-3.494.941-.026.007Q4.022,5.35,1.575,6.005a1.114,1.114,0,0,0-.7.39,1.038,1.038,0,0,0,0,.774l.633,2.368c.79,2.957,1.608,6.016,2.435,9.032a.979.979,0,0,1-.495,1.288c-.965.571-1.9,1.2-2.783,1.8a3.525,3.525,0,0,0-.51.462l-.018.018-.12.122L0,22.286V43.819l0,.022a4.634,4.634,0,0,0,.944,1.868,3.667,3.667,0,0,0,2.624,1.207c.069,0,.139,0,.209,0h39.2a3.654,3.654,0,0,0,3.935-3.942V37.949c0-5,0-10.162.011-15.242M1.967,22.47,4.531,20.8l1.09,4.051ZM7.6,9.37a1.288,1.288,0,0,1-.786,1.375c-.621.3-.7.467-.526,1.137q.671,2.6,1.349,5.2a2.37,2.37,0,0,0,.127.39.68.68,0,0,0,1.3-.29A1.739,1.739,0,0,0,9,16.8l-.2-.749c-.31-1.177-.63-2.395-.962-3.587a.806.806,0,0,1,.265-.944A2.763,2.763,0,0,0,8.98,9.974.863.863,0,0,1,9.5,9.413c.473-.146.94-.266,1.435-.393L11.018,9l.454-.118.372-.1V28.86L11.4,28.61l-.1-.054-.019-.01c-.084-.046-.171-.093-.255-.149l-.613-.4c-.88-.577-1.79-1.173-2.677-1.771a1.171,1.171,0,0,1-.466-.616C5.8,20.167,4.306,14.633,2.865,9.28L2.446,7.726a1.359,1.359,0,0,1-.03-.158c0-.023-.007-.048-.012-.077L2.36,7.225l9.485-2.543V7.338l-1.26.352c-.751.21-1.508.421-2.267.631-.689.191-.79.338-.72,1.049m33.7,15.48,1.084-4.06,2.571,1.68ZM35.083,8.789l.868.23c.532.14,1.083.286,1.623.444.254.074.344.384.371.514a2.634,2.634,0,0,0,.892,1.568.776.776,0,0,1,.247.909c-.429,1.558-.84,3.112-1.186,4.426a.913.913,0,0,0,.062.7.62.62,0,0,0,.409.286.678.678,0,0,0,.836-.5c.515-1.88,1.027-3.806,1.523-5.725.064-.246.085-.6-.463-.832a1.292,1.292,0,0,1-.96-1.576c.05-.551-.1-.765-.631-.915-.8-.226-1.642-.453-2.383-.653l-.172-.046-.838-.227-.219-.06V4.678L44.6,7.233l-.379,1.423c-.215.807-.428,1.607-.643,2.406l-.447,1.663C42,16.9,40.843,21.217,39.686,25.46a1.517,1.517,0,0,1-.571.806c-.862.59-1.72,1.151-2.641,1.752l-.932.61-.459.3Zm-12.106,27.4c-3.016-1.982-6.137-4.02-9.275-6.056a.91.91,0,0,1-.451-.849Q13.259,19,13.258,8.725V2.142c0-.1.008-.2.016-.3,0-.049.008-.1.012-.156L13.3,1.4H33.625l.013.283c0,.059.006.116.009.172.007.121.013.235.013.355V7.988c0,6.956,0,14.149.008,21.224a1.015,1.015,0,0,1-.51.959c-2.8,1.815-5.811,3.779-9.2,6a.792.792,0,0,1-.982.01M15.32,32.832l1.8,1.182c1.63,1.073,3.308,2.177,4.989,3.278.191.125.386.237.6.36.115.066.231.132.345.2a.8.8,0,0,0,.972-.06c1.737-1.152,3.513-2.309,5.235-3.431l.218-.142L31.045,33.2l.31-.2.308-.2L44.386,45.472l-.708.006c-5.169.045-10.686.067-16.863.067-8.17,0-16.3-.039-23.465-.073l-.712,0Zm17.774-.969,12.448-8.081V44.491ZM13.87,31.857,1.438,44.49v-20.7Z" transform="translate(0 -0.001)" fill="#2d2d2d"></path><path id="Path_1452" data-name="Path 1452" d="M112.22,91.475h-.005a7.471,7.471,0,0,0-5.33,2.233,7.625,7.625,0,0,0,5.359,13.016h.045a7.625,7.625,0,0,0-.068-15.25m6.277,7.682a6.251,6.251,0,0,1-6.225,6.183h-.053a6.269,6.269,0,0,1-6.189-6.317,6.225,6.225,0,0,1,6.212-6.146h.041a6.221,6.221,0,0,1,6.213,6.28" transform="translate(-88.806 -77.624)" fill="#2d2d2d"></path><path id="Path_1453" data-name="Path 1453" d="M119.088,28.157a1.3,1.3,0,0,1-1.168-1.146c-.1-.686-.251-.816-.924-.818q-1.548,0-3.1,0h-4.391c-.687,0-1.38,0-2.066,0-.516,0-.752.2-.816.678-.113.841-.446,1.167-1.322,1.293-.395.057-.632.288-.635.618-.016,1.945-.016,3.988,0,6.072a.614.614,0,0,0,.569.614.917.917,0,0,0,.11.007.656.656,0,0,0,.445-.158.8.8,0,0,0,.238-.6c0-.655,0-1.31,0-1.966,0-.892,0-1.813.01-2.721a.9.9,0,0,1,.41-.71,3,3,0,0,0,1.322-1.324.845.845,0,0,1,.666-.412c2.555-.015,5.131-.015,7.658,0a.843.843,0,0,1,.662.418A2.618,2.618,0,0,0,118,29.254a.8.8,0,0,1,.508.834c-.012,1.283-.01,2.578-.007,3.83v.666a1.009,1.009,0,0,0,.228.725.648.648,0,0,0,.468.167c.168,0,.679,0,.681-.9,0-2.109,0-3.862,0-5.519,0-.637-.15-.8-.793-.9" transform="translate(-88.809 -22.225)" fill="#2d2d2d"></path></g></svg>