<svg xmlns="http://www.w3.org/2000/svg" xmlns:xlink="http://www.w3.org/1999/xlink" id="Group_524" data-name="Group 524" width="41.559" height="50.488" viewBox="0 0 41.559 50.488"><defs><clipPath id="clip-path"><rect id="Rectangle_542" data-name="Rectangle 542" width="41.559" height="50.488" fill="#2d2d2d"></rect></clipPath></defs><g id="Group_523" data-name="Group 523" clip-path="url(#clip-path)"><path id="Path_1457" data-name="Path 1457" d="M41.547,22.829V17.651c0-5.375,0-10.933.013-16.4,0-.673-.17-1.023-.629-1.252H.628A1.145,1.145,0,0,0,0,1.2c.014,5.435.013,10.96.012,16.3V22.88c0,.909.252,1.158,1.17,1.159H16.948l-.555.988c-.075.134-.134.24-.195.345l-.947,1.652q-.964,1.681-1.927,3.363a.815.815,0,0,0,.012.968.784.784,0,0,0,.866.332c.261-.045.453-.212.661-.576q.673-1.178,1.348-2.355,1.174-2.049,2.343-4.1a1.113,1.113,0,0,1,1.088-.623c.856.027,1.565.026,2.23,0h.069a1.188,1.188,0,0,1,1.1.678c.655,1.157,1.333,2.328,1.989,3.46l.617,1.067c.118.2.235.41.352.616.273.482.556.98.853,1.451a.834.834,0,0,0,.614.41.8.8,0,0,0,.661-.258.874.874,0,0,0,.066-1.108q-.956-1.689-1.923-3.373l-.941-1.646c-.06-.105-.117-.213-.183-.338l-.508-.949H40.327c.992,0,1.22-.226,1.22-1.209m-1.734-.518H1.746V1.712H39.813Z" transform="translate(0)" fill="#2d2d2d"></path><path id="Path_1458" data-name="Path 1458" d="M6.809,177.623a1.488,1.488,0,0,0,1.084.291H23.162a1.447,1.447,0,0,0,1.045-.277,1.39,1.39,0,0,0,.193-1.027,8.766,8.766,0,0,0-4.541-7.293c-.11-.065-.221-.128-.333-.191l-.685-.389.368-.465a4.961,4.961,0,1,0-7.394,0l.366.452-.586.359c-.064.04-.117.073-.172.1a8.763,8.763,0,0,0-4.8,7.372,1.437,1.437,0,0,0,.191,1.071m8.733-15.92h.042a3.21,3.21,0,0,1,2.287.992,3.155,3.155,0,0,1,.894,2.281,3.251,3.251,0,0,1-3.233,3.153h-.013a3.179,3.179,0,0,1-2.277-.963,3.211,3.211,0,0,1,2.3-5.463m-7.02,13.984c.023-2.77,3.38-5.7,6.651-5.806,3.606-.113,7.1,2.635,7.33,5.772l.041.547H8.519Z" transform="translate(-5.259 -127.426)" fill="#2d2d2d"></path><path id="Path_1459" data-name="Path 1459" d="M110.285,177.646a1.19,1.19,0,0,0,.882.267q7.81,0,15.621,0a.92.92,0,0,0,1.083-1.133,8.886,8.886,0,0,0-1.553-4.725,9.037,9.037,0,0,0-3.493-3.006l-.563-.283.394-.491A4.961,4.961,0,0,0,118.965,160a4.915,4.915,0,0,0-2.884.933,4.785,4.785,0,0,0-1.9,2.759,4.955,4.955,0,0,0,1.1,4.581l.384.474-.722.393c-.1.056-.2.105-.286.158a8.727,8.727,0,0,0-4.588,7.5,1.121,1.121,0,0,0,.21.846m8.7-15.943h.029a3.228,3.228,0,0,1,2.275.968,3.212,3.212,0,0,1-2.284,5.46h-.059a3.214,3.214,0,0,1,.039-6.428M112,175.635a7.076,7.076,0,0,1,6.989-5.755h.037c3.405,0,6.722,2.741,6.971,5.769l.045.551h-14.1Z" transform="translate(-87.663 -127.425)" fill="#2d2d2d"></path><path id="Path_1460" data-name="Path 1460" d="M51.25,54.881H31.569a2.348,2.348,0,0,0-.312.008.815.815,0,0,0-.766.593.784.784,0,0,0,.094.719,1.006,1.006,0,0,0,.834.372q3.577.006,7.154,0H49.858l.5,0c.392,0,.8.005,1.19-.008a.826.826,0,0,0,.834-.78.836.836,0,0,0-.759-.9,2.689,2.689,0,0,0-.372-.013" transform="translate(-24.247 -43.707)" fill="#2d2d2d"></path><path id="Path_1461" data-name="Path 1461" d="M31.329,82a.9.9,0,0,0-.755.38.822.822,0,0,0-.075.768c.1.251.3.539,1.03.54H45.145q1.025,0,2.05,0a.843.843,0,0,0,.85-.494.775.775,0,0,0-.023-.773A.961.961,0,0,0,47.191,82q-2.783-.011-5.566,0H35.807c-.44,0-.878,0-1.317,0-1.037,0-2.109,0-3.161.008" transform="translate(-24.241 -65.299)" fill="#2d2d2d"></path><path id="Path_1462" data-name="Path 1462" d="M37.113,27.755c-1.858,0-3.762,0-5.772.006a.834.834,0,0,0-.8.449.807.807,0,0,0,0,.813.868.868,0,0,0,.766.42c1.245.013,2.513.01,3.739.008.549,0,1.1,0,1.648,0H38.11q1.958,0,3.917,0c.584,0,.952-.317.961-.822a.809.809,0,0,0-.227-.6.952.952,0,0,0-.688-.265c-1.641-.006-3.281-.009-4.959-.009" transform="translate(-24.232 -22.105)" fill="#2d2d2d"></path></g></svg>