<svg xmlns="http://www.w3.org/2000/svg" xmlns:xlink="http://www.w3.org/1999/xlink" id="Group_307" data-name="Group 307" width="50.168" height="43.35" viewBox="0 0 50.168 43.35"><defs><clipPath id="clip-path"><rect id="Rectangle_447" data-name="Rectangle 447" width="50.168" height="43.35" fill="#2d2d2d"></rect></clipPath></defs><g id="Group_306" data-name="Group 306" clip-path="url(#clip-path)"><path id="Path_329" data-name="Path 329" d="M14.823,6.769c-.908.009-1.831.005-2.723,0-2.054-.008-4.178-.016-6.253.127a5.822,5.822,0,0,0-5.362,4,9.558,9.558,0,0,0-.348,1.3c-.044.2-.088.4-.137.6V37.365c.009.033.018.066.028.1a2.65,2.65,0,0,1,.076.314A6.064,6.064,0,0,0,3.91,42.76a9.023,9.023,0,0,0,3.536.588q17.326,0,34.653,0h.085a18.192,18.192,0,0,0,1.962-.071,6.327,6.327,0,0,0,5-2.927,7.54,7.54,0,0,0,1.02-4.18q0-7.161,0-14.322V13.969c0-.256,0-.546-.02-.823a6.26,6.26,0,0,0-3.221-5.454,7.981,7.981,0,0,0-3.981-.906c-1.813-.008-3.657-.006-5.44,0H34.393v-.5c0-.163,0-.3,0-.444,0-.335,0-.67,0-1,0-.754,0-1.534-.039-2.3A2.7,2.7,0,0,0,31.9.031C31.62,0,31.333,0,31.088,0h-3.28c-3.073,0-6.249,0-9.373.028A2.606,2.606,0,0,0,15.822,2.5c-.057.775-.053,1.573-.049,2.344,0,.367,0,.733,0,1.1,0,.131-.009.261-.016.4,0,.066-.007.134-.01.205l-.01.224h-.477c-.156,0-.3,0-.436,0M17.429,2.59a1.049,1.049,0,0,1,1-1.024,3.092,3.092,0,0,1,.463-.023H31.243a4.1,4.1,0,0,1,.431.015,1.057,1.057,0,0,1,1.08,1.063c.025.914.02,1.808.015,2.755q0,.562,0,1.132v.235H17.419V6.508q0-.564,0-1.123c0-.917-.007-1.866.012-2.795M42.883,8.415a8.308,8.308,0,0,1,2.735.456c1.768.63,2.72,2.029,2.911,4.279.022.261.025.52.025.761q0,11.15,0,22.3a5.98,5.98,0,0,1-.918,3.523,4.8,4.8,0,0,1-3.779,1.955c-.515.044-1.037.041-1.542.038l-.405,0q-6.52,0-13.04,0H25.055q-2.106,0-4.206,0h-4.1c-3.132,0-6.3,0-9.439-.014a9.153,9.153,0,0,1-2.3-.286,4.305,4.305,0,0,1-3.281-3.76,8.336,8.336,0,0,1-.111-1.417V34.71c-.006-6.82-.012-13.873.013-20.81a7.968,7.968,0,0,1,.384-2.446A4.408,4.408,0,0,1,5.926,8.49,9.288,9.288,0,0,1,7.29,8.4h3.322c10.577,0,21.514-.009,32.271.016" fill="#2d2d2d"></path><path id="Path_330" data-name="Path 330" d="M109.784,107.93l.011-.223h1.485c.958,0,1.9,0,2.838,0a1.29,1.29,0,0,0,1.43-1.38c.015-1.952.015-3.964,0-5.98a1.277,1.277,0,0,0-1.427-1.378c-.828-.006-1.671,0-2.486,0h-1.869V97.471c0-.936,0-1.848,0-2.761a1.369,1.369,0,0,0-1.559-1.569q-2.818,0-5.636,0a1.371,1.371,0,0,0-1.578,1.552c-.005.715,0,1.43,0,2.145q0,.658,0,1.315c0,.124-.008.248-.016.378,0,.063-.008.129-.011.2l-.011.223h-1.46c-.929,0-1.842,0-2.755,0-1.056,0-1.529.475-1.532,1.524-.006,1.854-.006,3.767,0,5.685,0,1.064.487,1.54,1.569,1.542.9,0,1.8,0,2.727,0h1.49v.235q0,.63,0,1.245c0,.932,0,1.845,0,2.758a1.375,1.375,0,0,0,1.561,1.576c1.835.006,3.731.006,5.635,0a1.376,1.376,0,0,0,1.563-1.572c.005-.715,0-1.43,0-2.146q0-.657,0-1.314c0-.124.008-.244.016-.372,0-.06.008-.122.011-.187m-.571-1.832c-.787,0-1.054.269-1.059,1.059-.005.911,0,1.821,0,2.732v1.98h-5.509l-.01-.224c0-.058-.006-.115-.009-.172-.007-.122-.015-.249-.015-.375q0-.73,0-1.461c0-.831,0-1.662,0-2.493-.005-.78-.275-1.045-1.07-1.047q-1.137,0-2.273,0h-1.68c-.112,0-.225-.006-.344-.013l-.17-.009-.224-.01v-5.487h1.917q1.349,0,2.7,0c.888,0,1.145-.254,1.148-1.125q0-1.34,0-2.68V94.79h5.528v2.1q0,1.243,0,2.487c0,.936.257,1.193,1.183,1.194q1.323,0,2.647,0h1.948V106.1h-1.923q-1.39,0-2.779,0" transform="translate(-80.297 -78.557)" fill="#2d2d2d"></path></g></svg>