<svg xmlns="http://www.w3.org/2000/svg" xmlns:xlink="http://www.w3.org/1999/xlink" id="Group_301" data-name="Group 301" width="47.127" height="47.126" viewBox="0 0 47.127 47.126"><defs><clipPath id="clip-path"><rect id="Rectangle_444" data-name="Rectangle 444" width="47.127" height="47.126" fill="#2d2d2d"></rect></clipPath></defs><g id="Group_300" data-name="Group 300" clip-path="url(#clip-path)"><path id="Path_320" data-name="Path 320" d="M44.387,12.6C40.075,4.837,33.415.613,24.589.047A21.784,21.784,0,0,0,12.516,2.776,23.315,23.315,0,0,0,.372,19.471c-.118.611-.193,1.25-.267,1.868-.032.273-.066.556-.1.844v2.772c.038.286.072.573.105.853.073.612.148,1.245.265,1.854A23.357,23.357,0,0,0,12.547,44.376a22.247,22.247,0,0,0,9.275,2.675,1.584,1.584,0,0,1,.294.056l.059.015,2.75,0,.077-.02a1.574,1.574,0,0,1,.293-.056,21.894,21.894,0,0,0,9.276-2.679c7.739-4.335,11.947-10.991,12.508-19.782A21.493,21.493,0,0,0,44.387,12.6m1.2,10.992a22.075,22.075,0,0,1-22.009,22h-.034A22.029,22.029,0,0,1,23.55,1.538h.022A22.082,22.082,0,0,1,45.588,23.594" transform="translate(0 -0.001)" fill="#2d2d2d"></path><path id="Path_321" data-name="Path 321" d="M113.224,96.371h-7.108v-7c0-1.08-.179-1.256-1.276-1.257H97.582c-1.11,0-1.277.17-1.277,1.3v6.953H93.617q-2.233,0-4.466,0c-.874,0-1.1.229-1.1,1.106,0,2.353,0,4.833,0,7.582,0,.9.223,1.12,1.132,1.121q2.217,0,4.434,0H96.3v2.813q0,2.155,0,4.311c0,.908.221,1.13,1.122,1.131h7.536c.935,0,1.15-.215,1.151-1.148q0-2.237,0-4.474v-2.632h7.093c.954,0,1.161-.2,1.161-1.139q0-3.768,0-7.536c0-.859-.279-1.134-1.146-1.135m-8.656,16.508H97.852v-2.763q0-2.171,0-4.341c0-.884-.255-1.139-1.131-1.14q-2.174,0-4.348,0H89.607V97.919h7.1c.884,0,1.139-.255,1.14-1.131q0-2.249,0-4.5V89.673h6.785v7.079c0,.948.222,1.166,1.188,1.166h7.046V104.6l-.253.013-.156.009c-.122.008-.248.016-.378.016h-6.375c-.883,0-1.139.255-1.14,1.131q0,2.147,0,4.294Z" transform="translate(-77.65 -77.71)" fill="#2d2d2d"></path></g></svg>