<svg xmlns="http://www.w3.org/2000/svg" xmlns:xlink="http://www.w3.org/1999/xlink" id="Group_299" data-name="Group 299" width="43.991" height="44" viewBox="0 0 43.991 44"><defs><clipPath id="clip-path"><rect id="Rectangle_443" data-name="Rectangle 443" width="43.991" height="44" fill="#2d2d2d"></rect></clipPath></defs><g id="Group_298" data-name="Group 298" clip-path="url(#clip-path)"><path id="Path_318" data-name="Path 318" d="M3.883,25.5a19.1,19.1,0,0,0-3.72,9.554c-.034.32-.074.64-.113.96q-.025.2-.05.405v2.317a1.072,1.072,0,0,1,.066.22A6,6,0,0,0,6.042,44C15.815,44,25.751,44,35.36,44h7.729c.639,0,.9-.266.9-.919q0-5.095,0-10.189c0-.7-.252-.947-.96-.947H41.4c-2.646,0-5.383,0-8.074.008h-.007a1.021,1.021,0,0,1-1.073-.8,18.51,18.51,0,0,0-2.721-5.387,37.976,37.976,0,0,0-3.842-4.312c-.351-.356-.7-.711-1.049-1.07a38.628,38.628,0,0,1-2.576-2.917,9.376,9.376,0,0,1-1.969-4.749l-.08-.66h1.042c.268,0,.521,0,.775,0a.737.737,0,1,0,.008-1.466c-.243,0-.487,0-.745,0H20l.136-.7c.012-.065.024-.125.034-.182.023-.127.045-.24.07-.351A13.205,13.205,0,0,1,21.7,5.784,23.423,23.423,0,0,1,25,1.326a.745.745,0,0,0,.085-1.08,1.709,1.709,0,0,0-.3-.209L24.732,0h-1l-.278.057c-.238.048-.483.1-.72.153a8.168,8.168,0,0,0-2.811,1.406,5.72,5.72,0,0,1-4.843.832,4.226,4.226,0,0,1-1.311-.558A10,10,0,0,0,9.52,0H8.491L8.439.031a1.745,1.745,0,0,0-.282.194.728.728,0,0,0,.066,1.1A23.444,23.444,0,0,1,11.5,5.739a13.512,13.512,0,0,1,1.493,3.646c.026.111.044.219.064.333.009.054.019.112.031.175l.128.7H12.142c-.253,0-.5,0-.741,0a.736.736,0,1,0-.014,1.466c.253,0,.507,0,.776,0H13.21l-.077.658a8.587,8.587,0,0,1-1.63,4.252,39.688,39.688,0,0,1-2.935,3.422c-.413.434-.838.866-1.248,1.285A38.984,38.984,0,0,0,3.883,25.5M42.5,42.5H27.966V38.723H42.5Zm-.011-5.289H27.961V33.432H42.487ZM12.17,4,11.049,2.207l1.886.954a7.55,7.55,0,0,0,7.338.011l1.856-.942L21.043,4a15.961,15.961,0,0,0-2.433,6.058l-.075.5H14.7l-.077-.5A15.937,15.937,0,0,0,12.17,4m-.235,14.845a11.212,11.212,0,0,0,2.7-6.236l.056-.527h3.855l.051.532c.359,3.708,2.568,6.384,4.9,8.723q.343.343.687.685a39.156,39.156,0,0,1,4.025,4.436,16.942,16.942,0,0,1,2.384,4.393c.021.058.039.118.064.2l.285.9H27.516c-.834,0-1.05.213-1.05,1.034v9.489l-.549.037-.128.01c-.1.008-.2.017-.311.017H14.334c-2.736,0-5.486,0-8.212,0A4.441,4.441,0,0,1,1.489,38.3,27.808,27.808,0,0,1,1.7,34.617c.487-4.091,2.384-7.667,5.971-11.253,1.318-1.317,2.854-2.885,4.26-4.52" fill="#2d2d2d"></path><path id="Path_319" data-name="Path 319" d="M118.865,191.342a3.362,3.362,0,0,0-3.087-2.194,2.113,2.113,0,0,1-1.631-.816,1.791,1.791,0,0,1-.3-1.54,1.91,1.91,0,0,1,3.768.381.759.759,0,0,0,.776.793.7.7,0,0,0,.5-.232.848.848,0,0,0,.189-.624,3.274,3.274,0,0,0-1.977-2.944,1.044,1.044,0,0,1-.667-1.086c.022-.325.014-.656.005-1.006l0-.088a.744.744,0,0,0-.732-.78H115.7a.741.741,0,0,0-.727.793c-.005.326,0,.652,0,1,0,.157,0,.317,0,.48v.374l-.531.249a3.382,3.382,0,0,0,1.262,6.517,1.912,1.912,0,1,1-1.908,1.951.753.753,0,0,0-.731-.772h-.032a.7.7,0,0,0-.5.221.855.855,0,0,0-.2.624,3.259,3.259,0,0,0,1.344,2.579,2.609,2.609,0,0,0,.333.2,1.821,1.821,0,0,1,.86.743,2.285,2.285,0,0,1,.126,1.228c-.012.135-.022.263-.022.376v.026a.746.746,0,0,0,.726.765h.009a.742.742,0,0,0,.731-.776v-.037c.009-.368.018-.715,0-1.057a1.038,1.038,0,0,1,.673-1.091,3.363,3.363,0,0,0,1.757-4.25" transform="translate(-99.093 -159.852)" fill="#2d2d2d"></path></g></svg>