<svg xmlns="http://www.w3.org/2000/svg" xmlns:xlink="http://www.w3.org/1999/xlink" id="Group_522" data-name="Group 522" width="40.824" height="57.396" viewBox="0 0 40.824 57.396"><defs><clipPath id="clip-path"><rect id="Rectangle_541" data-name="Rectangle 541" width="40.824" height="57.396" fill="#2d2d2d"></rect></clipPath></defs><g id="Group_521" data-name="Group 521" clip-path="url(#clip-path)"><path id="Path_1455" data-name="Path 1455" d="M.037,38.545q.317,2.55.637,5.1c.425,3.394.864,6.9,1.284,10.358A3.571,3.571,0,0,0,5.719,57.39c9.38.008,18.984.008,29.361,0a3.6,3.6,0,0,0,3.791-3.425c.49-4.073,1.011-8.212,1.514-12.214l.4-3.182a3.44,3.44,0,0,0-1.648-3.591,1.207,1.207,0,0,1-.619-1.127c.014-1.362.028-2.947,0-4.52a5.952,5.952,0,0,0-3.449-5.547c-.782-.411-1.591-.81-2.373-1.195-.41-.2-.82-.4-1.228-.608-.174-.087-.345-.18-.526-.278l-.665-.357.216-.4a11.883,11.883,0,0,0,1.419-5.465l.007-.339.326-.093c.845-.24.981-.494.98-1.011q0-.478,0-.957c0-1.327.008-2.7-.106-4.029A10.214,10.214,0,0,0,24.818.22,29.018,29.018,0,0,0,20.9.024c-.528,0-1.073-.006-1.61-.02q-.156,0-.311,0A10.011,10.011,0,0,0,12.46,2.325a1.936,1.936,0,0,1-.785.38A4.879,4.879,0,0,0,7.59,7.743c-.007,1.445-.005,2.89,0,4.335l0,1.562c0,1.018.118,1.126.933,1.412l.258.09.043.269c.05.306.092.611.135.914A17.112,17.112,0,0,0,9.3,18.264a18.247,18.247,0,0,0,.65,1.906c.112.294.225.59.334.893l.137.383-1.639.821c-.961.481-1.933.967-2.9,1.457A6.011,6.011,0,0,0,2.3,29.486c0,.489,0,.979,0,1.469,0,.966,0,1.964-.019,2.948A1.413,1.413,0,0,1,1.7,34.937,3.533,3.533,0,0,0,.037,38.545M10.326,11.512l-.924.682v-.911c0-.458-.009-.91-.017-1.356a28.957,28.957,0,0,1,.049-3.069A3.038,3.038,0,0,1,12.17,4.376a2.4,2.4,0,0,0,1.13-.5,8,8,0,0,1,5.254-2.111c.416,0,.833-.007,1.25-.013a29.234,29.234,0,0,1,4.707.186,8.493,8.493,0,0,1,6.959,8.106c.014.608.011,1.2.007,1.833,0,.287,0,.577,0,.872v.477L31,13.208a28.611,28.611,0,0,1-6.159-.92A30,30,0,0,1,16,8.375c-.913-.593-1-.588-1.886.122q-1.72,1.381-3.445,2.754c-.108.086-.22.168-.348.261M23.89,24.532a9.815,9.815,0,0,1-3.505.655,9.612,9.612,0,0,1-5.343-1.632,9.868,9.868,0,0,1-4.419-8,3.342,3.342,0,0,1,1.62-3.368,11.206,11.206,0,0,0,1.382-1.049c.3-.252.61-.513.935-.753a1.184,1.184,0,0,1,1.2-.079,34.128,34.128,0,0,0,13.108,4.534c.2.032.391.071.6.111l.642.125.02.357a9.691,9.691,0,0,1-6.233,9.1M25.3,25.9l-.377.932c-.546,1.35-2.684,2.269-4.339,2.28h-.058a5.44,5.44,0,0,1-4.575-2.1l-.876-1.147,1.378.429a12.311,12.311,0,0,0,7.9-.065ZM4.034,29.251a4.187,4.187,0,0,1,2.276-3.792c.958-.516,1.947-1,2.9-1.477.606-.3,1.213-.6,1.815-.907a1.027,1.027,0,0,1,1.453.419,3.79,3.79,0,0,1,.428,1.181,7.63,7.63,0,0,0,7.5,6.2h.03a7.607,7.607,0,0,0,7.469-6.188,3.852,3.852,0,0,1,.245-.877,1.351,1.351,0,0,1,.712-.8,1.378,1.378,0,0,1,1.075.15l.495.246q1.894.941,3.785,1.888a4.391,4.391,0,0,1,2.58,4.2c0,1.012,0,2.024,0,3.059v1.879H4.12l-.048-.406c0-.038-.01-.075-.015-.111a2.062,2.062,0,0,1-.029-.308q0-.6-.006-1.2c-.006-1.034-.013-2.1.011-3.159M2.2,36.748a1.935,1.935,0,0,1,1.481-.561c1.189-.007,2.378-.005,3.568,0H36.834a2.375,2.375,0,0,1,1.828.587,2.249,2.249,0,0,1,.364,1.866c-.351,2.906-.723,5.858-1.082,8.713q-.23,1.831-.46,3.662-.169,1.354-.333,2.708a1.872,1.872,0,0,1-2.159,1.92H5.825a1.845,1.845,0,0,1-2.142-1.865q-.818-6.495-1.628-12.99l-.246-1.967c-.017-.137-.028-.275-.038-.413l-.008-.1A1.976,1.976,0,0,1,2.2,36.748" transform="translate(0)" fill="#2d2d2d"></path><path id="Path_1456" data-name="Path 1456" d="M74.74,190.777a3.506,3.506,0,1,0,2.524-6.012h-.047a3.478,3.478,0,0,0-2.463.965,3.646,3.646,0,0,0-.014,5.047m2.442-4.293a1.734,1.734,0,0,1,1.265.483,1.888,1.888,0,0,1,.007,2.584,1.75,1.75,0,0,1-1.24.478h-.041a1.773,1.773,0,0,1,.009-3.544" transform="translate(-56.805 -142.346)" fill="#2d2d2d"></path></g></svg>