<svg xmlns="http://www.w3.org/2000/svg" xmlns:xlink="http://www.w3.org/1999/xlink" id="Group_303" data-name="Group 303" width="47.854" height="47.937" viewBox="0 0 47.854 47.937"><defs><clipPath id="clip-path"><rect id="Rectangle_445" data-name="Rectangle 445" width="47.854" height="47.937" fill="#2d2d2d"></rect></clipPath></defs><g id="Group_302" data-name="Group 302" clip-path="url(#clip-path)"><path id="Path_322" data-name="Path 322" d="M211.6,77.386a6.835,6.835,0,0,1,1.069.161,2.074,2.074,0,0,1,1.648,1.783,6.52,6.52,0,0,1,.075.711c.011.166.022.323.042.479a.689.689,0,0,0,.664.639h.014a.665.665,0,0,0,.653-.65,4.824,4.824,0,0,0-.6-2.722,3.836,3.836,0,0,0-3.388-1.761c-.988-.025-1.125.35-1.144.631-.02.3.13.671.964.728" transform="translate(-184.476 -66.585)" fill="#2d2d2d"></path><path id="Path_323" data-name="Path 323" d="M157.7,232.42h0a2.072,2.072,0,0,0,.274.01h3.189c1.28,0,2.574,0,3.853,0h.094a.875.875,0,0,0,.384-.041c.319-.246.447-.447.461-.553a.977.977,0,0,0-.288-.622.935.935,0,0,0-.554-.127c-.87-.015-1.756-.013-2.612-.011h-.339c-.2,0-.4,0-.6,0H159c-.125,0-.245,0-.372,0-.323,0-.628-.007-.933.019a.672.672,0,0,0-.627.675.694.694,0,0,0,.634.654" transform="translate(-137.562 -202.374)" fill="#2d2d2d"></path><path id="Path_324" data-name="Path 324" d="M46.267,32.982a.943.943,0,0,1-.469-.692c-.34-1.459-.677-2.944-1-4.38L44.541,26.8a2.536,2.536,0,0,0-2.619-2.113c-2.4,0-4.838,0-7.2,0H30.416l.505-.557c.116-.128.228-.247.333-.36.212-.226.395-.42.558-.629a15.059,15.059,0,0,0,3.037-7.073,10.792,10.792,0,0,0-.3-5.32,6.914,6.914,0,0,0-4.177-4.413l0,0a8.073,8.073,0,0,0-1.529-.371l1.227-1.67a8.017,8.017,0,0,0,.489-.94,12.494,12.494,0,0,0,.584-1.962c.031-.13.062-.259.093-.388a.792.792,0,0,0-.4-1H30.1c-.252.07-.508.136-.755.2a17.218,17.218,0,0,0-1.711.5,5.877,5.877,0,0,0-3.008,2.52c-.045.073-.092.138-.147.212l-.084.115-.294.416-.263-.437a6.215,6.215,0,0,0-2.209-2.272A8.384,8.384,0,0,0,20.524.731a.806.806,0,0,0-.578-.037.577.577,0,0,0-.328.351c-.131.335.041.646.45.808A4.944,4.944,0,0,1,22.717,4.1a7.913,7.913,0,0,1,.389.876c.059.148.121.3.191.469l.233.549L22.7,5.867l-.336-.05a8.723,8.723,0,0,0-6.176,1.241,6.858,6.858,0,0,0-3.143,5.365,14.319,14.319,0,0,0,2.971,10.485l1.564,1.8H5.746A2.48,2.48,0,0,0,3.4,26.912c-.486,2.1-.875,3.806-1.225,5.356a1.058,1.058,0,0,1-.651.81,2.4,2.4,0,0,0-1.5,2.237c-.028.621-.029,1.282,0,1.965A2.422,2.422,0,0,0,1.542,39.55a1.011,1.011,0,0,1,.628.775c.316,1.408.644,2.84.961,4.223l.291,1.272a2.534,2.534,0,0,0,2.62,2.115c11.777,0,23.847,0,35.874,0a2.536,2.536,0,0,0,2.625-2.109l.269-1.178c.32-1.4.651-2.846.969-4.272a1.057,1.057,0,0,1,.7-.85,2.552,2.552,0,0,0,1.38-1.487V34.578a2.792,2.792,0,0,0-1.587-1.6M25.005,5.4a5.4,5.4,0,0,1,4.423-3.949l.493-.058-.133.478C29.077,4.444,27.555,5.8,25.383,5.8h-.054l-.4,0ZM17.27,22.55a13.139,13.139,0,0,1-2.931-10.441,5.925,5.925,0,0,1,5.417-5.077,6.447,6.447,0,0,1,3.9.5c.265.131.5.071.9-.1a7.259,7.259,0,0,1,7.472,1.414A6.174,6.174,0,0,1,33.755,13a13.378,13.378,0,0,1-3.372,9.892,4.948,4.948,0,0,1-4.126,1.8c-.511-.028-1.036-.02-1.545-.013-.46.007-.927.008-1.376,0s-.941-.018-1.4.016q-.227.017-.449.017A5.2,5.2,0,0,1,17.27,22.55m-13.648,8.9c.164-.724.324-1.433.485-2.142l.114-.5c.123-.548.252-1.114.383-1.671a1.359,1.359,0,0,1,1.515-1.219q17.863,0,35.727,0A1.3,1.3,0,0,1,43.315,27c.322,1.357.638,2.74.943,4.078l.26,1.141a.756.756,0,0,1,.012.217c0,.023,0,.048,0,.075v.334H30.712c-.8,0-.853.038-1.115.816-.062.185-.126.368-.193.558l-.173.5h-10.5l-.387-1.15c-.215-.64-.327-.721-1-.721H3.305Zm40.931,8.746q-.069.309-.134.612c-.1.448-.193.886-.292,1.326q-.235,1.033-.473,2.066l-.277,1.212a1.393,1.393,0,0,1-1.6,1.295H6.2a1.358,1.358,0,0,1-1.584-1.191c-.315-1.354-.63-2.733-.933-4.065l-.231-1.015a1,1,0,0,1-.02-.2c0-.027,0-.057,0-.093L3.4,39.789H44.642Zm2.162-3.071A1.3,1.3,0,0,1,45.3,38.538c-.366,0-.735.007-1.1.007l-.8,0-.805,0H2.957c-1.28,0-1.712-.431-1.712-1.708v-.353q0-.442,0-.883a1.342,1.342,0,0,1,1.519-1.518q3.548,0,7.095,0h3.716c.967,0,1.967,0,2.949-.008a.813.813,0,0,1,.9.616c.23.7.348,1.037.522,1.161a2.775,2.775,0,0,0,1.278.128H29.343c.7,0,.8-.077,1.03-.745.356-1.056.49-1.153,1.581-1.153h13.1c1.211,0,1.662.451,1.664,1.662,0,.131,0,.261,0,.392,0,.325,0,.659,0,.992" transform="translate(0)" fill="#2d2d2d"></path></g></svg>