<svg xmlns="http://www.w3.org/2000/svg" xmlns:xlink="http://www.w3.org/1999/xlink" id="Group_305" data-name="Group 305" width="53.311" height="36.438" viewBox="0 0 53.311 36.438"><defs><clipPath id="clip-path"><rect id="Rectangle_446" data-name="Rectangle 446" width="53.311" height="36.438" fill="#2d2d2d"></rect></clipPath></defs><g id="Group_304" data-name="Group 304" clip-path="url(#clip-path)"><path id="Path_325" data-name="Path 325" d="M15.445,103.313q-2.079,0-4.16,0c-3.2,0-6.512.006-9.769-.018-.918-.01-1.279.24-1.516.676v.5c.211.449.53.708,1.371.7,3.323-.023,6.7-.02,9.966-.017q1.955,0,3.909,0a5.353,5.353,0,0,0,.554-.019.885.885,0,0,0,.662-.4.894.894,0,0,0,.1-.777c-.1-.3-.314-.647-1.112-.648" transform="translate(0 -89.424)" fill="#2d2d2d"></path><path id="Path_326" data-name="Path 326" d="M85.018,20.057a3.248,3.248,0,0,0-.77-2.229c-.137-.172-.275-.345-.414-.517a24.364,24.364,0,0,1-3.266-4.824c-.834-1.773-1.741-3.554-2.618-5.277-.5-.979-1.014-1.99-1.512-2.994a1.138,1.138,0,0,0-1.2-.757c-.4.017-.8.013-1.189.008l-.508,0H67.3V1.416C67.3.225,67.073,0,65.874,0Q51.935,0,38,0a5.2,5.2,0,0,0-.6.026.864.864,0,0,0-.767.786.867.867,0,0,0,.6.967,2.978,2.978,0,0,0,.744.07q11.12.006,22.239,0h5.235V6.508q0,3.924,0,7.85c0,1.085.251,1.335,1.342,1.335h2.221c3.383,0,6.88,0,10.321-.008h.007a1.669,1.669,0,0,1,1.441.72c.282.379.58.762.87,1.132.351.447.713.911,1.057,1.383a2.3,2.3,0,0,1,.432,1.288c.016,2.041.015,4.116.013,6.122v3.128h-.806l-.838,0c-.657,0-1.276-.008-1.892.011a1.358,1.358,0,0,1-1.46-1.027,6.108,6.108,0,0,0-5.788-4.221h-.011A6.115,6.115,0,0,0,66.588,28.4a1.441,1.441,0,0,1-1.526,1.066c-3.418-.02-6.259-.019-8.942,0A1.559,1.559,0,0,1,54.462,28.3a6.1,6.1,0,0,0-10.31-2.013,6.647,6.647,0,0,0-1.383,2.6l-.171.578H41.264l-1.1,0c-.814,0-1.656-.008-2.479.008a1.145,1.145,0,0,0-.847.313.952.952,0,0,0-.211.714c.052.757.851.827,1.1.83,1.406.017,2.643.016,3.781,0a1.38,1.38,0,0,1,1.452,1.014A6.051,6.051,0,0,0,48.7,36.437h.04a6.074,6.074,0,0,0,5.739-4.1A1.386,1.386,0,0,1,55.9,31.315h.012c2.882.016,5.912.016,9.267,0h.009a1.35,1.35,0,0,1,1.4.975,6.029,6.029,0,0,0,5.759,4.145h.028a6.049,6.049,0,0,0,5.748-4.111,1.387,1.387,0,0,1,1.457-1.01c1.131.017,2.285.013,3.4.009H83.7c1.006,0,1.3-.29,1.3-1.284q0-1.432,0-2.863c-.007-2.333-.012-4.745.023-7.119M67.323,13.81V5.3h2.544c1.361,0,2.768,0,4.154.011a1.42,1.42,0,0,1,1.219.678c.952,1.857,1.9,3.754,2.818,5.588l.236.473.223.446c.009.019.017.036.024.054l0,.009.618,1.249ZM48.76,34.586h-.034a4.264,4.264,0,0,1-4.26-4.2,4.251,4.251,0,0,1,4.249-4.3h.008a4.251,4.251,0,0,1,.036,8.5m26.606-1.24a4.243,4.243,0,0,1-3,1.24h-.046a4.238,4.238,0,0,1-3.007-1.3,4.172,4.172,0,0,1-1.2-2.994,4.233,4.233,0,0,1,4.259-4.208h.02a4.265,4.265,0,0,1,4.247,4.249,4.211,4.211,0,0,1-1.266,3.012" transform="translate(-31.707 0)" fill="#2d2d2d"></path><path id="Path_327" data-name="Path 327" d="M36.577,52.835c-1.69-.006-3.409,0-5.071,0H27.522q-.833,0-1.665,0c-.494,0-1,0-1.5,0-.8,0-1.6,0-2.4.017a.927.927,0,0,0-.827.477.87.87,0,0,0,.036.9,1,1,0,0,0,1,.461h0q5.182-.007,10.364,0h3.984a2.57,2.57,0,0,0,.258-.007.927.927,0,0,0,.841-1.106.958.958,0,0,0-1.039-.724" transform="translate(-18.203 -45.731)" fill="#2d2d2d"></path><path id="Path_328" data-name="Path 328" d="M24.762,154.156c-.391,0-.788,0-1.186,0-.522,0-1.048,0-1.566.014a.905.905,0,0,0-.961.908.93.93,0,0,0,.961.923c2.818.022,5.56.013,7.87,0a.934.934,0,0,0,.82-1.443.848.848,0,0,0-.695-.375c-.928-.034-1.881-.026-2.8-.018-.414,0-.827.007-1.241.007h-.806v-.012l-.393,0" transform="translate(-18.222 -133.449)" fill="#2d2d2d"></path></g></svg>