<svg xmlns="http://www.w3.org/2000/svg" xmlns:xlink="http://www.w3.org/1999/xlink" id="Group_520" data-name="Group 520" width="62.021" height="39.6" viewBox="0 0 62.021 39.6"><defs><clipPath id="clip-path"><rect id="Rectangle_540" data-name="Rectangle 540" width="62.021" height="39.6" fill="#2d2d2d"></rect></clipPath></defs><g id="Group_519" data-name="Group 519" clip-path="url(#clip-path)"><path id="Path_1454" data-name="Path 1454" d="M44.78,26.085c2.614,0,11.541.008,14.158-.007a3.415,3.415,0,0,0,1.026-.172,2.984,2.984,0,0,0,2.022-3.263,3.023,3.023,0,0,0-2.92-2.572c-.679-.012-1.372-.009-2.041-.006l-.924,0h-.149V13.1l.293-.018.249-.016a2.234,2.234,0,0,0,2.119-1.551A2.17,2.17,0,0,0,57.9,9.042l-.123-.106c-3.1-2.677-6.3-5.445-9.471-8.143a3.039,3.039,0,0,0-4.135.041c-1.043.884-6.445,5.5-7.478,6.4a1.878,1.878,0,0,0-.189.189l-.016.016c-.768.658-1.355,1.169-1.9,1.656a2.124,2.124,0,0,0-.651,2.435A2.184,2.184,0,0,0,35.94,13.06c.117.013.234.019.349.025l.16.009.139.009v6.932H26.724V17.277q0-2.629,0-5.257c0-.082,0-.163,0-.245a2.093,2.093,0,0,1,.413-1.577,1.086,1.086,0,0,0,.162-.653l0-.227c.017-1.281.035-2.6,0-3.9a1.913,1.913,0,0,0-1.988-1.9c-.862-.01-1.739-.008-2.588-.006l-1.122,0H19.813V3.367c0-.132,0-.257,0-.378,0-.244,0-.474,0-.7a2.119,2.119,0,0,0-2.07-2.22C16.165,0,14.594,0,13.074.075a2.119,2.119,0,0,0-2.028,2.195c-.008.239-.006.478,0,.731,0,.12,0,.242,0,.367v.149H9.257c-1.249,0-2.429,0-3.627,0A1.939,1.939,0,0,0,3.552,5.574c-.017,1.364-.028,2.593.012,3.826a2.5,2.5,0,0,0,.191.746c.043.12.088.243.125.367.025.084.056.168.09.258a1.814,1.814,0,0,1,.154.62c.015,2.236.013,4.51.011,6.708v1.264c0,.125-.01.249-.02.37,0,.056-.009.112-.013.169l-.008.133-.133.006c-.171.008-.339.01-.5.011a5.744,5.744,0,0,0-.972.064A3.143,3.143,0,0,0,0,22.5v1.169c.571,1.7,1.755,2.454,3.815,2.437,5.855-.037,11.809-.031,17.566-.025q3.235,0,6.47,0h1.041l-.144.228-.174.277c-.1.153-.171.275-.251.394l-1.526,2.3c-1.5,2.269-3.06,4.616-4.6,6.916a2.075,2.075,0,0,0-.271,2.347,2.108,2.108,0,0,0,2.061,1.05h.01c2.352-.005,4.693-.007,7.009-.007,2.361,0,4.7,0,6.986.008H38a2.056,2.056,0,0,0,1.8-3.425c-1.552-2.316-3.118-4.679-4.632-6.964l-1.527-2.3c-.072-.108-.139-.218-.224-.354l-.148-.239-.142-.227h1.414q5.118,0,10.237,0M36.434,11.521h-.047a1.523,1.523,0,0,1-.669-.247c-.092-.051-.178-.1-.264-.137l-.142-.063.069-.139c.042-.085.077-.177.115-.275a1.566,1.566,0,0,1,.354-.619c.635-.579,1.3-1.146,1.937-1.7.411-.353.823-.706,1.229-1.063a1.437,1.437,0,0,0,.131-.131l.015-.015c1.143-.976,4.932-4.212,5.694-4.872,1.095-.948,1.73-.948,2.831,0l3.744,3.223,2.9,2.492.59.506c.641.548,1.3,1.115,1.935,1.7a.9.9,0,0,1,.28.836,1.23,1.23,0,0,1-.731.5,1.129,1.129,0,0,1-.476.032c-.06,0-.12-.009-.178-.009h0c-1.266,0-1.369.1-1.369,1.338v7.192H49.8v-.149c0-.214,0-.421,0-.622,0-.44,0-.855,0-1.27,0-.159,0-.319,0-.478a11.851,11.851,0,0,0-.065-1.448,3.418,3.418,0,0,0-1.461-2.363A3.474,3.474,0,0,0,45.5,13.2a3.529,3.529,0,0,0-2.76,3.467c-.013.734-.01,1.482-.007,2.206q0,.5,0,1v.149h-4.57v-6.7c0-.879,0-1.363-.193-1.564s-.67-.215-1.537-.242m7.84,7.292c-.013-.794-.026-1.614.031-2.416a1.91,1.91,0,0,1,2.04-1.743,1.935,1.935,0,0,1,1.892,1.832c.041.774.032,1.534.022,2.338,0,.346-.008.695-.008,1.047v.149H44.286v-.149c0-.354-.006-.706-.011-1.058M12.619,2.179a.925.925,0,0,1,.71-.58c1.257-.037,2.535-.029,3.771-.021l.427,0a.689.689,0,0,1,.753.753c0,.221,0,.443,0,.682V3.5H12.587V3.348c0-.113-.006-.227-.012-.34a2.655,2.655,0,0,1,.043-.83M5.07,7.347A6.4,6.4,0,0,0,5.08,5.97l-.007-.109a.8.8,0,0,1,.158-.626.837.837,0,0,1,.648-.2c2.39.015,4.82.014,7.17.012.8,0,1.6,0,2.4,0l2.414,0c2.312,0,4.7.005,7.053-.015a.908.908,0,0,1,.691.2.92.92,0,0,1,.18.682c-.019.535-.017,1.082-.015,1.61,0,.508,0,1.034-.013,1.552a1.622,1.622,0,0,1-.325.82A4.15,4.15,0,0,1,21.7,11.614c-.083,0-.167,0-.253,0-3.455-.094-6.973-.072-10.375-.051q-1.623.01-3.245.017H7.82a1.854,1.854,0,0,1-1.156-.438A3.618,3.618,0,0,1,5.07,7.347m.6,9.737q0-.457,0-.913V12.614l.2.081a9.321,9.321,0,0,0,3.883.409,13.783,13.783,0,0,1,2.633.072l.113.018.012.113c.276,2.557,1,3.56,2.665,3.7a2.783,2.783,0,0,0,1.912-.51,3.267,3.267,0,0,0,1.21-3.235l-.012-.16H22.8l.224,0a2.319,2.319,0,0,0,1.914-.579l.254-.257v.362c0,.634,0,1.255,0,1.866,0,1.611-.007,3.133.015,4.667a.98.98,0,0,1-.2.72.881.881,0,0,1-.66.2h-.036c-1.73-.024-3.49-.02-5.192-.016l-1.379,0h0c-2.794,0-9.491-.006-11.332.008a.792.792,0,0,1-.588-.175.742.742,0,0,1-.164-.568c.019-.748.015-1.51.011-2.247m8.422-3.528c0-.091.006-.183.007-.275l0-.147h2.611l.022.2a1.861,1.861,0,0,1-.475,1.863,1.257,1.257,0,0,1-.808.3,1.351,1.351,0,0,1-.666-.185c-.735-.415-.713-1.1-.692-1.759M38.515,37.028a1.746,1.746,0,0,1,.187.435c.02.063.041.125.064.186l.057.147-.15.048c-.065.021-.13.048-.2.074a1.356,1.356,0,0,1-.5.133c-1.33.008-2.677.01-4,.01H29.485c-1.781,0-3.623,0-5.435-.009a1.472,1.472,0,0,1-.5-.123c-.066-.025-.133-.05-.2-.069l-.152-.045.055-.149c.022-.06.041-.123.06-.185a1.617,1.617,0,0,1,.181-.438c2.3-3.475,4.585-6.918,6.921-10.433.234-.352.39-.531.6-.531s.363.182.586.517c2.583,3.885,4.749,7.146,6.922,10.432M3.665,24.559c-.064,0-.118,0-.176,0H3.312a3.687,3.687,0,0,1-.392-.017,1.508,1.508,0,0,1-1.363-1.2,1.374,1.374,0,0,1,.278-1.16A1.722,1.722,0,0,1,3.184,21.6c1.985,0,6.427,0,10.345,0H58.547c.147,0,.3,0,.451.005a1.474,1.474,0,0,1,.117,2.943,3.7,3.7,0,0,1-.49.017c-.045,0-.09,0-.136,0H54.732c-2.605,0-5.826,0-8.084,0Z" transform="translate(0 -0.001)" fill="#2d2d2d"></path></g></svg>