<svg id="wave" style="transform:rotate(180deg); transition: 0.3s" viewBox="0 0 1440 140" version="1.1" xmlns="http://www.w3.org/2000/svg"><defs><linearGradient id="sw-gradient-0" x1="0" x2="0" y1="1" y2="0"><stop stop-color="rgba(69, 90, 181, 1)" offset="0%"></stop><stop stop-color="rgba(69, 90, 181, 1)" offset="100%"></stop></linearGradient></defs><path style="transform:translate(0, 0px); opacity:1" fill="url(#sw-gradient-0)" d="M0,70L17.1,74.7C34.3,79,69,89,103,84C137.1,79,171,61,206,65.3C240,70,274,98,309,102.7C342.9,107,377,89,411,79.3C445.7,70,480,70,514,58.3C548.6,47,583,23,617,25.7C651.4,28,686,56,720,63C754.3,70,789,56,823,44.3C857.1,33,891,23,926,30.3C960,37,994,61,1029,60.7C1062.9,61,1097,37,1131,44.3C1165.7,51,1200,89,1234,88.7C1268.6,89,1303,51,1337,39.7C1371.4,28,1406,42,1440,53.7C1474.3,65,1509,75,1543,65.3C1577.1,56,1611,28,1646,35C1680,42,1714,84,1749,105C1782.9,126,1817,126,1851,119C1885.7,112,1920,98,1954,98C1988.6,98,2023,112,2057,114.3C2091.4,117,2126,107,2160,100.3C2194.3,93,2229,89,2263,74.7C2297.1,61,2331,37,2366,28C2400,19,2434,23,2451,25.7L2468.6,28L2468.6,140L2451.4,140C2434.3,140,2400,140,2366,140C2331.4,140,2297,140,2263,140C2228.6,140,2194,140,2160,140C2125.7,140,2091,140,2057,140C2022.9,140,1989,140,1954,140C1920,140,1886,140,1851,140C1817.1,140,1783,140,1749,140C1714.3,140,1680,140,1646,140C1611.4,140,1577,140,1543,140C1508.6,140,1474,140,1440,140C1405.7,140,1371,140,1337,140C1302.9,140,1269,140,1234,140C1200,140,1166,140,1131,140C1097.1,140,1063,140,1029,140C994.3,140,960,140,926,140C891.4,140,857,140,823,140C788.6,140,754,140,720,140C685.7,140,651,140,617,140C582.9,140,549,140,514,140C480,140,446,140,411,140C377.1,140,343,140,309,140C274.3,140,240,140,206,140C171.4,140,137,140,103,140C68.6,140,34,140,17,140L0,140Z"></path></svg>