<svg id="visual" viewBox="0 0 900 600" width="900" height="600" xmlns="http://www.w3.org/2000/svg" xmlns:xlink="http://www.w3.org/1999/xlink" version="1.1"><rect x="0" y="0" width="900" height="600" fill="#B9E6E6"></rect><path d="M462 0L458.3 7.2C454.7 14.3 447.3 28.7 454.3 43C461.3 57.3 482.7 71.7 499.8 86C517 100.3 530 114.7 516.3 128.8C502.7 143 462.3 157 475.5 171.2C488.7 185.3 555.3 199.7 552.5 214C549.7 228.3 477.3 242.7 441.8 257C406.3 271.3 407.7 285.7 452.7 300C497.7 314.3 586.3 328.7 587.2 343C588 357.3 501 371.7 465.7 386C430.3 400.3 446.7 414.7 489.5 428.8C532.3 443 601.7 457 611.7 471.2C621.7 485.3 572.3 499.7 555 514C537.7 528.3 552.3 542.7 546.5 557C540.7 571.3 514.3 585.7 501.2 592.8L488 600L0 600L0 592.8C0 585.7 0 571.3 0 557C0 542.7 0 528.3 0 514C0 499.7 0 485.3 0 471.2C0 457 0 443 0 428.8C0 414.7 0 400.3 0 386C0 371.7 0 357.3 0 343C0 328.7 0 314.3 0 300C0 285.7 0 271.3 0 257C0 242.7 0 228.3 0 214C0 199.7 0 185.3 0 171.2C0 157 0 143 0 128.8C0 114.7 0 100.3 0 86C0 71.7 0 57.3 0 43C0 28.7 0 14.3 0 7.2L0 0Z" fill="#cbfcd8"></path><path d="M582 0L546 7.2C510 14.3 438 28.7 448.5 43C459 57.3 552 71.7 548.3 86C544.7 100.3 444.3 114.7 393.5 128.8C342.7 143 341.3 157 373.3 171.2C405.3 185.3 470.7 199.7 505 214C539.3 228.3 542.7 242.7 540 257C537.3 271.3 528.7 285.7 507.5 300C486.3 314.3 452.7 328.7 442 343C431.3 357.3 443.7 371.7 456 386C468.3 400.3 480.7 414.7 475.5 428.8C470.3 443 447.7 457 431.7 471.2C415.7 485.3 406.3 499.7 426.5 514C446.7 528.3 496.3 542.7 509 557C521.7 571.3 497.3 585.7 485.2 592.8L473 600L0 600L0 592.8C0 585.7 0 571.3 0 557C0 542.7 0 528.3 0 514C0 499.7 0 485.3 0 471.2C0 457 0 443 0 428.8C0 414.7 0 400.3 0 386C0 371.7 0 357.3 0 343C0 328.7 0 314.3 0 300C0 285.7 0 271.3 0 257C0 242.7 0 228.3 0 214C0 199.7 0 185.3 0 171.2C0 157 0 143 0 128.8C0 114.7 0 100.3 0 86C0 71.7 0 57.3 0 43C0 28.7 0 14.3 0 7.2L0 0Z" fill="#b2f7de"></path><path d="M313 0L342.3 7.2C371.7 14.3 430.3 28.7 461.5 43C492.7 57.3 496.3 71.7 467.5 86C438.7 100.3 377.3 114.7 361 128.8C344.7 143 373.3 157 413.7 171.2C454 185.3 506 199.7 506.3 214C506.7 228.3 455.3 242.7 415 257C374.7 271.3 345.3 285.7 358 300C370.7 314.3 425.3 328.7 444.7 343C464 357.3 448 371.7 430.2 386C412.3 400.3 392.7 414.7 379.3 428.8C366 443 359 457 386.2 471.2C413.3 485.3 474.7 499.7 490.8 514C507 528.3 478 542.7 467.8 557C457.7 571.3 466.3 585.7 470.7 592.8L475 600L0 600L0 592.8C0 585.7 0 571.3 0 557C0 542.7 0 528.3 0 514C0 499.7 0 485.3 0 471.2C0 457 0 443 0 428.8C0 414.7 0 400.3 0 386C0 371.7 0 357.3 0 343C0 328.7 0 314.3 0 300C0 285.7 0 271.3 0 257C0 242.7 0 228.3 0 214C0 199.7 0 185.3 0 171.2C0 157 0 143 0 128.8C0 114.7 0 100.3 0 86C0 71.7 0 57.3 0 43C0 28.7 0 14.3 0 7.2L0 0Z" fill="#99f0e6"></path><path d="M359 0L371.8 7.2C384.7 14.3 410.3 28.7 420.8 43C431.3 57.3 426.7 71.7 415.2 86C403.7 100.3 385.3 114.7 392.2 128.8C399 143 431 157 438.8 171.2C446.7 185.3 430.3 199.7 422.3 214C414.3 228.3 414.7 242.7 417.8 257C421 271.3 427 285.7 420.8 300C414.7 314.3 396.3 328.7 382.8 343C369.3 357.3 360.7 371.7 369 386C377.3 400.3 402.7 414.7 387.7 428.8C372.7 443 317.3 457 300.3 471.2C283.3 485.3 304.7 499.7 331.3 514C358 528.3 390 542.7 382 557C374 571.3 326 585.7 302 592.8L278 600L0 600L0 592.8C0 585.7 0 571.3 0 557C0 542.7 0 528.3 0 514C0 499.7 0 485.3 0 471.2C0 457 0 443 0 428.8C0 414.7 0 400.3 0 386C0 371.7 0 357.3 0 343C0 328.7 0 314.3 0 300C0 285.7 0 271.3 0 257C0 242.7 0 228.3 0 214C0 199.7 0 185.3 0 171.2C0 157 0 143 0 128.8C0 114.7 0 100.3 0 86C0 71.7 0 57.3 0 43C0 28.7 0 14.3 0 7.2L0 0Z" fill="#85e8ef"></path><path d="M263 0L275 7.2C287 14.3 311 28.7 313.5 43C316 57.3 297 71.7 302 86C307 100.3 336 114.7 349.8 128.8C363.7 143 362.3 157 334.5 171.2C306.7 185.3 252.3 199.7 232.7 214C213 228.3 228 242.7 233.5 257C239 271.3 235 285.7 246.8 300C258.7 314.3 286.3 328.7 287.7 343C289 357.3 264 371.7 273.8 386C283.7 400.3 328.3 414.7 335.5 428.8C342.7 443 312.3 457 306.3 471.2C300.3 485.3 318.7 499.7 335 514C351.3 528.3 365.7 542.7 372.5 557C379.3 571.3 378.7 585.7 378.3 592.8L378 600L0 600L0 592.8C0 585.7 0 571.3 0 557C0 542.7 0 528.3 0 514C0 499.7 0 485.3 0 471.2C0 457 0 443 0 428.8C0 414.7 0 400.3 0 386C0 371.7 0 357.3 0 343C0 328.7 0 314.3 0 300C0 285.7 0 271.3 0 257C0 242.7 0 228.3 0 214C0 199.7 0 185.3 0 171.2C0 157 0 143 0 128.8C0 114.7 0 100.3 0 86C0 71.7 0 57.3 0 43C0 28.7 0 14.3 0 7.2L0 0Z" fill="#79dff8"></path><path d="M165 0L165 7.2C165 14.3 165 28.7 188.3 43C211.7 57.3 258.3 71.7 265.7 86C273 100.3 241 114.7 232.7 128.8C224.3 143 239.7 157 237.3 171.2C235 185.3 215 199.7 217 214C219 228.3 243 242.7 256.3 257C269.7 271.3 272.3 285.7 275.3 300C278.3 314.3 281.7 328.7 267.5 343C253.3 357.3 221.7 371.7 208.8 386C196 400.3 202 414.7 202.3 428.8C202.7 443 197.3 457 209 471.2C220.7 485.3 249.3 499.7 250.8 514C252.3 528.3 226.7 542.7 211.7 557C196.7 571.3 192.3 585.7 190.2 592.8L188 600L0 600L0 592.8C0 585.7 0 571.3 0 557C0 542.7 0 528.3 0 514C0 499.7 0 485.3 0 471.2C0 457 0 443 0 428.8C0 414.7 0 400.3 0 386C0 371.7 0 357.3 0 343C0 328.7 0 314.3 0 300C0 285.7 0 271.3 0 257C0 242.7 0 228.3 0 214C0 199.7 0 185.3 0 171.2C0 157 0 143 0 128.8C0 114.7 0 100.3 0 86C0 71.7 0 57.3 0 43C0 28.7 0 14.3 0 7.2L0 0Z" fill="#78d5fe"></path><path d="M179 0L166.7 7.2C154.3 14.3 129.7 28.7 119.2 43C108.7 57.3 112.3 71.7 111.8 86C111.3 100.3 106.7 114.7 110.8 128.8C115 143 128 157 149.5 171.2C171 185.3 201 199.7 212.7 214C224.3 228.3 217.7 242.7 212 257C206.3 271.3 201.7 285.7 185.7 300C169.7 314.3 142.3 328.7 146.8 343C151.3 357.3 187.7 371.7 187.7 386C187.7 400.3 151.3 414.7 149.7 428.8C148 443 181 457 179.5 471.2C178 485.3 142 499.7 131.5 514C121 528.3 136 542.7 139.5 557C143 571.3 135 585.7 131 592.8L127 600L0 600L0 592.8C0 585.7 0 571.3 0 557C0 542.7 0 528.3 0 514C0 499.7 0 485.3 0 471.2C0 457 0 443 0 428.8C0 414.7 0 400.3 0 386C0 371.7 0 357.3 0 343C0 328.7 0 314.3 0 300C0 285.7 0 271.3 0 257C0 242.7 0 228.3 0 214C0 199.7 0 185.3 0 171.2C0 157 0 143 0 128.8C0 114.7 0 100.3 0 86C0 71.7 0 57.3 0 43C0 28.7 0 14.3 0 7.2L0 0Z" fill="#83c9ff"></path><path d="M73 0L81.5 7.2C90 14.3 107 28.7 110.7 43C114.3 57.3 104.7 71.7 95.5 86C86.3 100.3 77.7 114.7 72 128.8C66.3 143 63.7 157 65 171.2C66.3 185.3 71.7 199.7 72.3 214C73 228.3 69 242.7 72.8 257C76.7 271.3 88.3 285.7 91.5 300C94.7 314.3 89.3 328.7 94.2 343C99 357.3 114 371.7 111.5 386C109 400.3 89 414.7 82 428.8C75 443 81 457 94.2 471.2C107.3 485.3 127.7 499.7 131.3 514C135 528.3 122 542.7 113 557C104 571.3 99 585.7 96.5 592.8L94 600L0 600L0 592.8C0 585.7 0 571.3 0 557C0 542.7 0 528.3 0 514C0 499.7 0 485.3 0 471.2C0 457 0 443 0 428.8C0 414.7 0 400.3 0 386C0 371.7 0 357.3 0 343C0 328.7 0 314.3 0 300C0 285.7 0 271.3 0 257C0 242.7 0 228.3 0 214C0 199.7 0 185.3 0 171.2C0 157 0 143 0 128.8C0 114.7 0 100.3 0 86C0 71.7 0 57.3 0 43C0 28.7 0 14.3 0 7.2L0 0Z" fill="#96bcfd"></path></svg>